<svg width="36" height="28" viewBox="0 0 36 28" xmlns="http://www.w3.org/2000/svg">
<path d="M30.4954 2.34496C28.1302 1.2337 25.6332 0.445332 23.0684 0C22.7174 0.643884 22.3998 1.30636 22.117 1.98464C19.3849 1.56215 16.6065 1.56215 13.8744 1.98464C13.5914 1.30643 13.2739 0.643962 12.923 0C10.3565 0.449093 7.8579 1.23933 5.49029 2.35077C0.789966 9.48734 -0.484217 16.4467 0.152875 23.3072C2.9055 25.3943 5.98647 26.9815 9.26187 28C9.99939 26.982 10.652 25.9021 11.2128 24.7717C10.1477 24.3634 9.11963 23.8598 8.14059 23.2665C8.39826 23.0747 8.65026 22.8771 8.89377 22.6853C11.7426 24.0602 14.8519 24.773 17.9999 24.773C21.148 24.773 24.2573 24.0602 27.1061 22.6853C27.3524 22.8917 27.6044 23.0892 27.8593 23.2665C26.8783 23.8607 25.8484 24.3654 24.7814 24.7746C25.3415 25.9045 25.9942 26.9835 26.7323 28C30.0105 26.9856 33.0939 25.3991 35.847 23.3101C36.5945 15.3541 34.57 8.4587 30.4954 2.34496ZM12.0198 19.088C10.2444 19.088 8.77768 17.4346 8.77768 15.4006C8.77768 13.3665 10.1934 11.6986 12.0141 11.6986C13.8348 11.6986 15.2902 13.3665 15.259 15.4006C15.2279 17.4346 13.8291 19.088 12.0198 19.088ZM23.9801 19.088C22.2019 19.088 20.7408 17.4346 20.7408 15.4006C20.7408 13.3665 22.1566 11.6986 23.9801 11.6986C25.8036 11.6986 27.2477 13.3665 27.2165 15.4006C27.1854 17.4346 25.7894 19.088 23.9801 19.088Z"/>
</svg>
