<svg width="36" height="29" viewBox="0 0 36 29" xmlns="http://www.w3.org/2000/svg">
<path d="M32.0734 7.07836C32.0952 7.38684 32.0952 7.69532 32.0952 8.00665C32.0952 17.4928 24.721 28.4332 11.2369 28.4332V28.4275C7.25371 28.4332 3.35323 27.3158 0 25.2091C0.579194 25.2773 1.16129 25.3114 1.74484 25.3128C5.04581 25.3157 8.25242 24.231 10.8494 22.2337C7.71242 22.1754 4.96161 20.1724 4.00064 17.2483C5.09952 17.4558 6.23177 17.4132 7.31032 17.1246C3.89032 16.4479 1.42984 13.5053 1.42984 10.0878V9.99684C2.44887 10.5527 3.58984 10.8612 4.75694 10.8953C1.53581 8.78709 0.542903 4.59062 2.48806 1.30964C6.21 5.79469 11.7015 8.52126 17.5965 8.80983C17.0056 6.3164 17.8127 3.70356 19.7173 1.95077C22.6698 -0.767274 27.3135 -0.62796 30.089 2.26209C31.7308 1.94508 33.3044 1.35513 34.7444 0.519246C34.1971 2.18106 33.0518 3.59268 31.5218 4.48969C32.9748 4.32194 34.3945 3.94096 35.7314 3.35954C34.7473 4.80385 33.5076 6.06194 32.0734 7.07836Z" />
</svg>
